<?xml version="1.0" standalone="no"?>
<!DOCTYPE svg PUBLIC "-//W3C//DTD SVG 20010904//EN"
 "http://www.w3.org/TR/2001/REC-SVG-20010904/DTD/svg10.dtd">
<svg version="1.0" xmlns="http://www.w3.org/2000/svg"
 width="680.000000pt" height="680.000000pt" viewBox="0 0 680.000000 680.000000"
 preserveAspectRatio="xMidYMid meet">
<metadata>
Created by potrace 1.11, written by Peter Selinger 2001-2013
</metadata>
<g transform="translate(0.000000,680.000000) scale(0.100000,-0.100000)"
fill="#000000" stroke="none">
<path d="M3290 6793 c-153 -24 -335 -112 -500 -244 -86 -68 -232 -213 -264
-261 -39 -60 -9 -160 57 -195 17 -8 76 -31 132 -49 132 -44 245 -83 270 -95
20 -9 103 -40 230 -86 63 -22 102 -29 192 -34 64 -3 139 17 343 93 118 44 220
81 225 83 6 1 17 5 25 8 8 4 65 23 125 43 122 40 140 51 165 107 19 41 13 101
-13 134 -45 58 -264 269 -309 298 -8 6 -35 23 -59 39 -63 42 -157 91 -204 106
-22 7 -44 15 -50 19 -13 7 -17 8 -98 25 -63 13 -210 18 -267 9z"/>
<path d="M2088 5967 c-27 -5 -48 -13 -48 -18 0 -5 -6 -9 -12 -9 -35 0 -88 -73
-156 -211 -68 -140 -105 -219 -107 -229 -1 -3 -8 -18 -15 -35 -7 -16 -14 -32
-15 -35 -1 -3 -9 -23 -19 -45 -30 -69 -138 -359 -139 -372 0 -7 -4 -13 -9 -13
-4 0 -8 -8 -8 -17 0 -10 -7 -36 -15 -58 -8 -22 -14 -47 -15 -56 0 -24 47 -66
72 -64 22 1 87 31 98 44 6 7 148 103 165 111 5 3 30 18 55 35 25 16 53 34 62
40 173 106 438 265 441 265 2 0 44 23 93 51 48 28 167 91 263 141 177 91 188
98 207 133 15 28 0 87 -27 105 -20 13 -412 149 -470 163 -13 3 -80 22 -149 42
-139 40 -182 46 -252 32z"/>
<path d="M4585 5969 c-16 -5 -39 -11 -50 -14 -49 -10 -67 -15 -180 -50 -277
-84 -482 -154 -513 -176 -34 -24 -44 -71 -23 -109 13 -25 47 -48 166 -109 189
-98 288 -152 394 -213 46 -26 85 -48 87 -48 1 0 45 -26 97 -59 52 -32 98 -60
103 -62 5 -2 69 -42 142 -89 73 -47 140 -90 150 -95 9 -6 58 -38 107 -71 50
-33 101 -63 114 -67 29 -7 78 19 87 45 5 16 -9 80 -27 123 -4 11 -33 90 -65
175 -31 85 -67 179 -80 208 -13 29 -24 56 -24 61 0 4 -13 35 -30 69 -16 34
-30 64 -30 67 0 19 -153 315 -173 335 -40 40 -66 60 -80 60 -7 0 -17 4 -22 9
-14 14 -114 20 -150 10z"/>
<path d="M3357 5514 c-1 -1 -18 -5 -37 -8 -19 -3 -53 -12 -75 -19 -38 -14
-371 -178 -485 -238 -173 -93 -312 -173 -525 -302 -10 -7 -95 -61 -187 -120
-171 -111 -198 -138 -198 -194 0 -13 7 -37 15 -54 16 -30 50 -49 195 -109 136
-57 126 -52 305 -135 105 -49 349 -169 355 -175 3 -3 30 -17 60 -32 30 -15 96
-50 145 -78 50 -28 105 -58 123 -67 17 -9 32 -20 32 -25 0 -4 5 -8 11 -8 7 0
39 -17 73 -38 84 -53 139 -73 210 -77 63 -3 165 18 177 36 3 6 9 10 13 9 6 -2
98 48 204 111 27 16 85 48 202 111 187 102 490 248 695 335 232 98 252 109
269 142 23 44 20 95 -7 124 -29 31 -513 347 -532 347 -1 0 -32 17 -66 38 -35
21 -95 56 -134 77 -38 21 -94 51 -122 67 -96 53 -447 226 -503 248 -30 12 -73
24 -95 26 -62 7 -115 11 -118 8z"/>
<path d="M1236 4507 c-24 -6 -55 -26 -80 -51 -33 -33 -46 -56 -64 -121 -29
-99 -53 -185 -58 -205 -2 -8 -11 -44 -19 -80 -9 -36 -19 -76 -21 -90 -3 -14
-9 -41 -14 -60 -5 -19 -11 -47 -14 -63 -3 -15 -7 -35 -10 -45 -3 -9 -7 -35
-11 -57 -3 -22 -12 -78 -20 -125 -7 -47 -17 -110 -20 -140 -4 -30 -9 -64 -11
-75 -2 -11 -5 -49 -5 -85 -1 -96 27 -159 104 -229 28 -26 267 -154 267 -144 0
3 6 1 13 -5 6 -6 84 -47 172 -92 88 -45 165 -86 170 -91 6 -4 40 -22 75 -40
52 -26 79 -33 135 -34 115 -4 170 29 384 225 9 8 39 33 66 55 28 21 52 42 55
45 3 3 29 23 58 45 28 21 52 43 52 47 0 4 6 8 14 8 8 0 16 4 18 9 4 10 283
221 453 343 66 48 129 97 139 109 26 31 30 102 8 141 -45 80 -787 455 -1267
640 -140 54 -241 90 -252 91 -7 0 -13 4 -13 8 0 3 -10 9 -22 12 -13 2 -54 17
-93 31 -81 31 -134 37 -189 23z"/>
<path d="M5415 4498 c-33 -10 -73 -25 -90 -32 -16 -8 -66 -26 -110 -41 -44
-15 -93 -33 -110 -40 -16 -7 -82 -33 -145 -58 -63 -25 -133 -53 -155 -63 -22
-10 -43 -19 -47 -20 -5 -1 -11 -3 -15 -4 -5 -1 -11 -2 -15 -1 -5 0 -8 -3 -8
-9 0 -5 -6 -10 -13 -10 -8 0 -40 -13 -73 -28 -32 -16 -88 -42 -124 -58 -143
-64 -555 -276 -642 -331 -21 -13 -40 -23 -43 -23 -22 0 -95 -64 -104 -91 -30
-86 -6 -123 151 -235 67 -48 125 -91 128 -94 3 -4 10 -9 15 -11 24 -9 490
-373 560 -437 11 -10 54 -47 95 -83 41 -35 84 -72 95 -82 48 -45 139 -76 208
-72 73 3 97 11 190 62 45 25 197 104 337 175 317 162 336 175 386 273 20 40
25 64 25 120 -1 39 -3 79 -5 90 -2 12 -7 48 -11 80 -4 33 -9 71 -11 85 -5 24
-8 45 -18 108 -3 15 -7 37 -10 48 -2 12 -7 37 -10 55 -6 35 -12 65 -21 109 -3
14 -7 34 -9 45 -9 45 -67 272 -75 295 -5 14 -19 62 -32 107 -14 50 -34 96 -51
117 -55 67 -143 87 -243 54z"/>
<path d="M3305 3446 c-46 -17 -135 -68 -135 -78 0 -4 -5 -8 -10 -8 -6 0 -16
-5 -23 -11 -7 -5 -61 -45 -122 -88 -60 -42 -130 -93 -156 -112 -25 -19 -58
-43 -73 -54 -16 -11 -43 -31 -60 -45 -17 -14 -35 -29 -41 -33 -181 -141 -265
-209 -295 -237 -9 -8 -38 -33 -64 -54 -127 -103 -156 -144 -156 -221 0 -31 31
-91 59 -113 9 -7 77 -54 151 -105 74 -52 175 -122 223 -158 49 -35 110 -80
137 -99 52 -38 197 -148 217 -165 36 -30 41 -33 47 -28 3 4 6 2 6 -4 0 -5 28
-32 63 -59 78 -62 83 -65 136 -109 91 -75 173 -98 258 -74 39 10 77 36 183
122 8 7 35 28 60 47 25 19 47 37 50 40 3 3 23 19 45 35 22 17 42 32 45 35 3 3
21 17 40 30 19 13 37 27 40 30 10 12 169 130 175 130 3 0 15 8 25 18 11 10 53
41 92 68 40 27 82 57 92 66 11 10 32 24 48 30 15 7 28 16 28 21 0 4 8 11 18
15 9 4 56 33 103 66 65 45 89 68 102 97 37 84 17 140 -79 225 -149 132 -181
160 -229 199 -28 22 -52 42 -55 45 -3 3 -27 24 -55 45 -27 22 -55 45 -61 50
-6 6 -22 17 -34 25 -12 8 -28 20 -34 25 -6 6 -38 31 -71 55 -33 25 -64 49 -70
53 -5 4 -35 26 -65 48 -30 21 -59 43 -65 47 -36 29 -256 171 -285 184 -42 18
-160 21 -205 4z"/>
<path d="M669 2917 c-89 -40 -97 -70 -104 -377 -4 -171 1 -214 40 -403 10 -49
72 -229 101 -292 15 -33 28 -62 29 -65 0 -3 13 -28 29 -57 20 -36 40 -57 64
-69 87 -41 127 -21 257 132 28 32 67 76 87 99 20 22 51 56 68 75 17 19 100
106 183 194 84 87 160 171 171 187 12 19 18 48 18 80 0 67 -34 110 -132 162
-183 96 -508 256 -659 323 -57 26 -110 29 -152 11z"/>
<path d="M5995 2915 c-16 -8 -75 -36 -130 -61 -55 -25 -126 -59 -157 -75 -32
-16 -58 -26 -58 -24 0 3 -10 -1 -22 -9 -20 -13 -77 -43 -317 -168 -102 -53
-129 -93 -122 -183 4 -44 23 -70 161 -212 160 -166 388 -417 450 -496 28 -35
95 -56 140 -45 40 11 100 64 100 89 0 10 3 19 8 21 6 3 25 43 68 143 24 58 63
175 57 175 -3 0 -1 6 5 13 5 6 12 26 15 42 3 17 10 51 16 77 21 91 26 155 25
323 -1 278 -12 330 -76 378 -35 26 -122 32 -163 12z"/>
<path d="M1880 2258 c-19 -5 -40 -10 -46 -11 -24 -6 -67 -41 -136 -111 -86
-87 -300 -316 -349 -373 -8 -10 -49 -56 -90 -103 -163 -188 -189 -230 -193
-314 -4 -57 18 -132 46 -166 10 -11 15 -20 11 -20 -4 0 0 -6 9 -12 8 -7 47
-50 86 -95 108 -123 265 -277 352 -342 19 -14 42 -33 51 -41 9 -8 27 -23 40
-33 13 -10 42 -31 64 -48 72 -55 233 -158 309 -198 66 -35 81 -39 133 -37 62
4 124 29 166 68 13 13 56 61 96 107 40 46 77 89 84 96 7 6 37 41 67 76 30 35
162 172 293 303 131 132 246 254 254 270 20 38 21 122 2 162 -12 25 -141 140
-223 199 -15 11 -36 27 -46 35 -10 8 -27 22 -37 30 -10 8 -43 33 -73 55 -30
22 -56 43 -58 47 -2 5 -8 8 -13 8 -6 0 -19 9 -31 20 -40 37 -495 350 -509 350
-5 0 -9 4 -9 8 0 4 -28 22 -62 39 -68 34 -132 45 -188 31z"/>
<path d="M4812 2259 c-39 -7 -72 -24 -182 -92 -139 -85 -542 -377 -729 -527
-51 -41 -103 -82 -115 -90 -47 -34 -105 -97 -119 -130 -17 -44 -14 -108 8
-151 10 -18 94 -110 189 -204 224 -225 349 -357 491 -520 81 -93 155 -165 169
-165 6 0 22 -6 36 -13 14 -8 53 -13 86 -12 54 0 71 6 145 49 46 27 86 53 87
57 2 5 8 9 13 9 15 0 237 159 310 223 14 12 60 51 101 86 105 88 272 261 370
382 90 110 86 247 -9 356 -15 17 -38 44 -50 60 -12 15 -30 37 -40 48 -10 11
-45 52 -78 90 -33 38 -67 77 -75 85 -8 9 -51 55 -95 104 -161 176 -309 319
-350 337 -51 22 -108 28 -163 18z"/>
<path d="M3338 1130 c-54 -16 -95 -52 -293 -252 -222 -226 -344 -357 -482
-516 -61 -72 -38 -182 48 -227 44 -23 282 -85 386 -101 21 -3 49 -7 63 -10 67
-12 161 -17 335 -18 228 0 291 5 468 40 42 9 88 17 101 20 49 9 202 56 235 72
44 22 71 59 78 106 7 50 -11 95 -57 147 -180 202 -251 278 -471 501 -108 109
-202 198 -208 198 -6 0 -11 4 -11 8 0 27 -134 49 -192 32z"/>
</g>
</svg>
