<?xml version="1.0" encoding="utf-8"?>
<!-- Generator: Adobe Illustrator 19.0.0, SVG Export Plug-In . SVG Version: 6.00 Build 0)  -->
<svg version="1.1" id="Layer_1" xmlns="http://www.w3.org/2000/svg" xmlns:xlink="http://www.w3.org/1999/xlink" x="0px" y="0px"
	 viewBox="-64 8 40 40" style="enable-background:new -64 8 40 40;" xml:space="preserve">
<path d="M-29.23,15.48h-29.55c-1.57,0-2.84,1.27-2.84,2.84v19.36c0,1.57,1.27,2.84,2.84,2.84h29.55c1.57,0,2.84-1.27,2.84-2.84
	V18.32C-26.39,16.75-27.66,15.48-29.23,15.48z M-29.23,16.61c0.29,0,0.57,0.07,0.81,0.21l-14.25,12.42c-0.72,0.63-1.95,0.63-2.68,0
	l-14.24-12.42c0.24-0.13,0.52-0.21,0.81-0.21H-29.23z M-27.52,37.68c0,0.94-0.76,1.7-1.7,1.7h-29.55c-0.94,0-1.7-0.76-1.7-1.7V18.32
	c0-0.23,0.05-0.45,0.13-0.66l11.55,10.08l-6.5,6.1c-0.23,0.21-0.24,0.57-0.02,0.8c0.11,0.12,0.26,0.18,0.41,0.18
	c0.14,0,0.28-0.05,0.39-0.15l6.54-6.13c0.02-0.02,0.03-0.03,0.05-0.05l1.85,1.62c0.57,0.5,1.33,0.75,2.09,0.75
	c0.76,0,1.51-0.25,2.09-0.75l1.85-1.62c0.01,0.02,0.03,0.03,0.05,0.05l6.54,6.13c0.11,0.1,0.25,0.15,0.39,0.15
	c0.15,0,0.3-0.06,0.41-0.18c0.21-0.23,0.2-0.59-0.02-0.8l-6.5-6.1l11.55-10.07c0.08,0.2,0.13,0.42,0.13,0.65V37.68z"/>
</svg>
