<?xml version="1.0" encoding="utf-8"?>
<!-- Generator: Adobe Illustrator 19.0.0, SVG Export Plug-In . SVG Version: 6.00 Build 0)  -->
<svg version="1.1" id="Layer_1" xmlns="http://www.w3.org/2000/svg" xmlns:xlink="http://www.w3.org/1999/xlink" x="0px" y="0px"
	 viewBox="-64 8 40 40" style="enable-background:new -64 8 40 40;" xml:space="preserve">
<g>
	<path d="M-44,29.53c-3.68,0-6.68-3-6.68-6.68s2.99-6.68,6.68-6.68c3.68,0,6.68,3,6.68,6.68S-40.32,29.53-44,29.53z M-44,17.36
		c-3.03,0-5.5,2.47-5.5,5.5s2.47,5.5,5.5,5.5c3.03,0,5.5-2.47,5.5-5.5S-40.97,17.36-44,17.36z"/>
	<g>
		<path d="M-44,47.52c-0.17,0-0.34-0.08-0.45-0.21c-0.57-0.68-13.92-16.71-13.92-24.45c0-7.93,6.45-14.38,14.38-14.38
			c7.93,0,14.37,6.45,14.37,14.38c0,7.74-13.36,23.77-13.92,24.45C-43.66,47.44-43.83,47.52-44,47.52z M-44,9.66
			c-7.28,0-13.2,5.92-13.2,13.2C-57.2,29.41-46.36,43.1-44,46c2.36-2.91,13.2-16.6,13.2-23.15C-30.8,15.58-36.72,9.66-44,9.66z"/>
	</g>
</g>
</svg>
