<?xml version="1.0" encoding="utf-8"?>
<!-- Generator: Adobe Illustrator 19.0.0, SVG Export Plug-In . SVG Version: 6.00 Build 0)  -->
<svg version="1.1" id="Layer_1" xmlns="http://www.w3.org/2000/svg" xmlns:xlink="http://www.w3.org/1999/xlink" x="0px" y="0px"
	 viewBox="-64 8 40 40" style="enable-background:new -64 8 40 40;" xml:space="preserve">
<g>
	<g>
		<path d="M-33.42,32.35c-0.75-0.78-1.65-1.19-2.6-1.19c-0.95,0-1.85,0.41-2.63,1.18l-2.43,2.42c-0.2-0.11-0.4-0.21-0.59-0.31
			c-0.28-0.14-0.54-0.27-0.76-0.41c-2.28-1.45-4.34-3.33-6.33-5.77c-0.96-1.21-1.61-2.24-2.08-3.28c0.63-0.58,1.21-1.18,1.78-1.75
			c0.22-0.22,0.43-0.44,0.65-0.65c1.61-1.61,1.61-3.71,0-5.32l-2.1-2.1c-0.24-0.24-0.48-0.48-0.72-0.73
			c-0.46-0.48-0.95-0.97-1.45-1.43c-0.75-0.74-1.64-1.13-2.58-1.13c-0.94,0-1.85,0.39-2.61,1.13c-0.01,0.01-0.01,0.01-0.02,0.02
			l-2.61,2.64c-0.98,0.98-1.55,2.18-1.67,3.58c-0.18,2.25,0.48,4.34,0.98,5.7c1.25,3.36,3.11,6.47,5.88,9.81
			c3.37,4.02,7.42,7.2,12.05,9.43c1.77,0.84,4.13,1.83,6.77,2c0.16,0.01,0.33,0.02,0.48,0.02c1.78,0,3.27-0.64,4.44-1.91
			c0.01-0.02,0.02-0.02,0.03-0.04c0.4-0.48,0.86-0.92,1.35-1.39c0.33-0.32,0.67-0.65,1-0.99c0.76-0.79,1.16-1.71,1.16-2.66
			c0-0.95-0.41-1.87-1.18-2.64L-33.42,32.35z M-30.67,40.45C-30.68,40.45-30.68,40.46-30.67,40.45c-0.3,0.32-0.61,0.62-0.94,0.94
			c-0.5,0.48-1.01,0.98-1.48,1.54c-0.78,0.83-1.69,1.22-2.89,1.22c-0.12,0-0.24,0-0.35-0.01c-2.28-0.15-4.41-1.04-6-1.8
			c-4.35-2.11-8.17-5.1-11.35-8.89c-2.62-3.16-4.37-6.08-5.54-9.22c-0.72-1.91-0.98-3.41-0.86-4.81c0.08-0.9,0.42-1.65,1.06-2.28
			l2.62-2.62c0.38-0.35,0.78-0.55,1.17-0.55c0.48,0,0.88,0.29,1.12,0.54c0.01,0.01,0.02,0.02,0.02,0.02
			c0.47,0.44,0.91,0.89,1.38,1.38c0.24,0.25,0.48,0.49,0.73,0.75l2.1,2.1c0.81,0.81,0.81,1.57,0,2.38
			c-0.22,0.22-0.44,0.45-0.66,0.66c-0.65,0.66-1.26,1.28-1.93,1.88c-0.02,0.02-0.03,0.02-0.04,0.04c-0.66,0.66-0.54,1.31-0.4,1.75
			c0.01,0.02,0.02,0.05,0.02,0.07c0.55,1.32,1.31,2.57,2.48,4.05l0.01,0.01c2.12,2.61,4.36,4.65,6.83,6.21
			c0.32,0.2,0.64,0.36,0.95,0.52c0.28,0.14,0.54,0.27,0.76,0.41c0.03,0.02,0.06,0.04,0.09,0.05c0.26,0.13,0.51,0.19,0.76,0.19
			c0.64,0,1.04-0.4,1.17-0.53l2.63-2.63c0.26-0.26,0.68-0.58,1.16-0.58c0.48,0,0.87,0.3,1.11,0.56c0.01,0.01,0.01,0.01,0.02,0.02
			l4.24,4.24C-29.89,38.83-29.89,39.63-30.67,40.45z"/>
		<path d="M-42.53,18.45c2.01,0.34,3.84,1.29,5.3,2.75c1.46,1.46,2.41,3.29,2.75,5.3c0.08,0.51,0.52,0.86,1.02,0.86
			c0.06,0,0.12-0.01,0.18-0.02c0.57-0.09,0.95-0.63,0.85-1.2c-0.42-2.44-1.57-4.66-3.33-6.42c-1.76-1.76-3.98-2.91-6.42-3.33
			c-0.57-0.09-1.1,0.28-1.2,0.85C-43.47,17.81-43.1,18.36-42.53,18.45z"/>
		<path d="M-25.83,25.86c-0.68-4.01-2.58-7.67-5.48-10.57c-2.91-2.91-6.56-4.8-10.57-5.48c-0.56-0.1-1.09,0.28-1.19,0.85
			c-0.09,0.57,0.28,1.1,0.85,1.2c3.58,0.61,6.85,2.31,9.45,4.9c2.6,2.6,4.29,5.87,4.9,9.45c0.08,0.51,0.52,0.86,1.02,0.86
			c0.06,0,0.12-0.01,0.18-0.02C-26.11,26.95-25.73,26.42-25.83,25.86z"/>
	</g>
</g>
</svg>
