<?xml version="1.0" encoding="utf-8"?>
<!-- Generator: Adobe Illustrator 18.0.0, SVG Export Plug-In . SVG Version: 6.00 Build 0)  -->
<!DOCTYPE svg PUBLIC "-//W3C//DTD SVG 1.1//EN" "http://www.w3.org/Graphics/SVG/1.1/DTD/svg11.dtd">
<svg version="1.1" id="Layer_1" xmlns="http://www.w3.org/2000/svg" xmlns:xlink="http://www.w3.org/1999/xlink" x="0px" y="0px"
	 viewBox="0 0 16 10" enable-background="new 0 0 16 10" xml:space="preserve">
<rect fill="#FFFFFF" width="16" height="10"/>
<path fill="#FF0000" d="M0,4v2h16V4H0z"/>
<g>
	<path fill="#FF0000" d="M3.8,1.5c0-0.3,0-0.5,0.1-0.8c-0.1,0-0.2,0-0.4,0s-0.2,0-0.4,0c0,0.2,0.1,0.5,0.1,0.8c-0.3,0-0.5,0-0.8-0.1
		c0,0.1,0,0.2,0,0.4s0,0.2,0,0.4c0.2,0,0.5-0.1,0.8-0.1c0,0.3,0,0.5-0.1,0.8c0.1,0,0.2,0,0.4,0s0.2,0,0.4,0c0-0.2-0.1-0.5-0.1-0.8
		c0.3,0,0.5,0,0.8,0.1c0-0.1,0-0.2,0-0.4s0-0.2,0-0.4C4.3,1.5,4,1.5,3.8,1.5z"/>
	<path fill="#FF0000" d="M12.8,7.9c0-0.3,0-0.5,0.1-0.8c-0.1,0-0.2,0-0.4,0s-0.2,0-0.4,0c0,0.2,0.1,0.5,0.1,0.8
		c-0.3,0-0.5,0-0.8-0.1c0,0.1,0,0.2,0,0.4s0,0.2,0,0.4c0.2,0,0.5-0.1,0.8-0.1c0,0.3,0,0.5-0.1,0.8c0.1,0,0.2,0,0.4,0s0.2,0,0.4,0
		c0-0.2-0.1-0.5-0.1-0.8c0.3,0,0.5,0,0.8,0.1c0-0.1,0-0.2,0-0.4s0-0.2,0-0.4C13.3,7.9,13,7.9,12.8,7.9z"/>
	<path fill="#FF0000" d="M13.5,1.4c-0.2,0-0.5,0.1-0.8,0.1c0-0.3,0-0.5,0.1-0.8c-0.1,0-0.2,0-0.4,0s-0.2,0-0.4,0
		c0,0.2,0.1,0.5,0.1,0.8c-0.3,0-0.5,0-0.8-0.1c0,0.1,0,0.2,0,0.4s0,0.2,0,0.4c0.2,0,0.5-0.1,0.8-0.1c0,0.3,0,0.5-0.1,0.8
		c0.1,0,0.2,0,0.4,0s0.2,0,0.4,0c0-0.2-0.1-0.5-0.1-0.8c0.3,0,0.5,0,0.8,0.1c0-0.1,0-0.2,0-0.4S13.5,1.6,13.5,1.4z"/>
	<path fill="#FF0000" d="M3.8,7.9c0-0.3,0-0.5,0.1-0.8c-0.1,0-0.2,0-0.4,0s-0.2,0-0.4,0c0,0.2,0.1,0.5,0.1,0.8c-0.3,0-0.5,0-0.8-0.1
		c0,0.1,0,0.2,0,0.4s0,0.2,0,0.4c0.2,0,0.5-0.1,0.8-0.1c0,0.3,0,0.5-0.1,0.8c0.1,0,0.2,0,0.4,0s0.2,0,0.4,0c0-0.2-0.1-0.5-0.1-0.8
		c0.3,0,0.5,0,0.8,0.1c0-0.1,0-0.2,0-0.4s0-0.2,0-0.4C4.3,7.9,4,7.9,3.8,7.9z"/>
</g>
<path fill="#FF0000" d="M7,10h2V0H7V10z"/>
</svg>
