<?xml version="1.0" encoding="utf-8"?>
<!-- Generator: Adobe Illustrator 18.0.0, SVG Export Plug-In . SVG Version: 6.00 Build 0)  -->
<!DOCTYPE svg PUBLIC "-//W3C//DTD SVG 1.1//EN" "http://www.w3.org/Graphics/SVG/1.1/DTD/svg11.dtd">
<svg version="1.1" id="Layer_1" xmlns="http://www.w3.org/2000/svg" xmlns:xlink="http://www.w3.org/1999/xlink" x="0px" y="0px"
	 viewBox="0 0 16 10" enable-background="new 0 0 16 10" xml:space="preserve">
<rect x="-2" fill="#FFFFFF" width="19.9" height="10"/>
<polyline fill="#D11D23" points="18,4 9,4 9,0 7,0 7,4 -2,4 -2,6 7,6 7,10 9,10 9,6 18,6 "/>
<path fill="#D11D23" d="M11.3,6.6h1.5L18,9.2V10 M4.7,3.3H3.2L-2,0.7V0L4.7,3.3z M4.7,6.6h1.5L-0.5,10H-2L4.7,6.6z M11.3,3.3H9.8
	L16.5,0H18L11.3,3.3z"/>
<path fill="#00305C" d="M-2,6.6v2.2l4.4-2.2 M18,6.6v2.2l-4.4-2.2H18z M-2,3.3V1.1l4.4,2.2H-2z M18,3.3V1.1l-4.4,2.2H18z M6.3,10v-3
	l-6.1,3H6.3z M9.7,10v-3l6.1,3H9.7z M6.3,0v3L0.3,0H6.3z M9.7,0v3l6.1-3H9.7z"/>
</svg>
