<svg xmlns="http://www.w3.org/2000/svg" style="display: none;">
  
    <symbol id="icon-chevron-down" viewBox="0 0 512 512">
      <path d="m502 162l-57-58-189 189-189-189-57 58 246 246z"/>
    </symbol>
  
    <symbol id="icon-chevron-left" viewBox="0 0 512 512">
      <path d="m350 502l58-57-189-189 189-189-58-57-246 246z"/>
    </symbol>
  
    <symbol id="icon-chevron-right" viewBox="0 0 512 512">
      <path d="m162 10l-58 57 189 189-189 189 58 57 246-246z"/>
    </symbol>
  
    <symbol id="icon-chevron-up" viewBox="0 0 512 512">
      <path d="m10 350l57 58 189-189 189 189 57-58-246-246z"/>
    </symbol>
  
    <symbol id="icon-double-dash" viewBox="0 0 512 512">
      <path d="m213 414l101 0 191-329-102 0z m-15-329l-191 329 102 0 190-329z"/>
    </symbol>
  
    <symbol id="icon-email" viewBox="0 0 512 512">
      <path d="m445 96l-378 0c-20 0-37 16-37 36l0 248c0 20 17 36 37 36l378 0c20 0 36-16 36-36l0-248c0-20-16-36-36-36z m0 14c4 0 7 1 10 3l-182 159c-9 8-25 8-34 0l-183-159c4-2 7-3 11-3z m22 270c0 12-10 22-22 22l-378 0c-12 0-22-10-22-22l0-248c0-3 1-6 2-8l148 129-84 78c-2 2-3 7 0 10 2 2 4 2 5 2 2 0 4 0 5-2l84-78c0 0 1 0 1-1l24 21c7 6 17 10 26 10 10 0 20-4 27-10l24-21c0 1 0 1 0 1l84 78c1 2 3 2 5 2 2 0 4 0 5-2 3-3 3-8 0-10l-83-78 148-129c1 2 1 5 1 8l0 248z"/>
    </symbol>
  
    <symbol id="icon-location" viewBox="0 0 512 512">
      <path d="m256 276c-47 0-86-39-86-86 0-47 39-85 86-85 47 0 86 38 86 85 0 47-39 86-86 86z m0-156c-39 0-70 31-70 70 0 39 31 71 70 71 39 0 70-32 70-71 0-39-31-70-70-70z m0 386c-2 0-4-1-6-3-7-9-178-214-178-313 0-101 83-184 184-184 102 0 184 83 184 184 0 99-171 304-178 313-2 2-4 3-6 3z m0-485c-93 0-169 76-169 169 0 84 139 259 169 296 30-37 169-212 169-296 0-93-76-169-169-169z"/>
    </symbol>
  
    <symbol id="icon-phone" viewBox="0 0 512 512">
      <path d="m391 312c-9-10-21-16-33-16-12 0-24 6-34 16l-31 31c-2-2-5-3-7-4-4-2-7-4-10-6-29-18-55-42-81-74-12-15-21-28-27-42 9-7 16-15 23-22 3-3 6-6 9-8 20-21 20-48 0-68l-27-27c-3-3-6-6-10-10-5-6-12-12-18-18-10-9-21-14-33-14-12 0-24 5-34 14 0 0 0 0 0 0l-33 34c-13 13-20 28-22 46-2 29 7 56 13 73 16 43 40 83 75 126 43 51 95 92 154 120 23 11 53 24 87 26 2 0 4 0 6 0 23 0 42-8 57-24 0-1 0-1 0-1 6-6 11-12 18-18 4-4 8-8 13-12 9-10 14-22 14-34 0-13-5-24-15-34z m36 103c-1 0-1 0 0 0-4 4-8 8-12 12-7 7-13 13-19 20-10 11-22 16-37 16-2 0-3 0-5 0-29-2-56-14-77-23-55-27-104-66-145-114-33-41-56-78-71-118-9-25-12-44-11-62 1-11 6-21 14-29l33-34c5-4 10-7 15-7 6 0 12 4 15 7 0 0 0 1 0 1 6 5 11 11 18 17 3 3 6 7 9 10l27 27c10 10 10 20 0 30-3 3-6 6-9 9-8 8-16 16-24 24-1 0-1 0-1 0-8 9-7 17-5 23 0 0 0 0 0 1 7 16 17 32 32 51l0 0c27 34 56 60 88 80 4 3 8 5 12 7 3 1 7 3 9 5 1 0 1 0 2 1 3 1 6 2 9 2 8 0 14-5 15-7l34-34c3-3 9-7 15-7 6 0 11 4 14 7 0 0 0 0 0 0l54 55c11 10 11 20 1 30z m-152-281c26 4 49 16 68 35 18 19 31 42 35 68 1 6 7 11 13 11 1 0 1 0 2 0 8-2 12-9 11-16-5-31-20-59-43-82-22-23-50-37-82-43-7-1-14 4-15 11-1 8 4 15 11 16z m214 95c-9-52-33-99-71-136-37-37-84-61-135-70-7-1-14 4-15 11-1 7 3 14 11 15 46 8 87 30 121 63 33 33 55 75 62 121 1 7 7 11 14 11 0 0 1 0 2 0 7-1 12-8 11-15z"/>
    </symbol>
  
    <symbol id="icon-facebook" viewBox="0 0 512 512">
      <path d="m484 0l-456 0c-15 0-28 13-28 28l0 456c0 15 13 28 28 28l245 0 0-198-66 0 0-78 66 0 0-57c0-66 41-102 100-102 28 0 52 2 59 3l0 69-40 0c-33 0-39 16-39 38l0 49 77 0-10 78-67 0 0 198 131 0c15 0 28-13 28-28l0-456c0-15-13-28-28-28z"/>
    </symbol>
  
    <symbol id="icon-twitter" viewBox="0 0 512 512">
      <path d="m506 93c-19 8-38 14-59 16 21-12 37-33 45-56-20 11-42 20-65 24-19-19-45-32-75-32-56 0-102 46-102 103 0 8 1 16 2 23-85-4-160-45-211-107-9 15-14 33-14 51 0 36 18 67 46 86-17-1-33-6-47-13 0 0 0 1 0 1 0 50 36 91 82 101-8 2-17 3-27 3-6 0-13 0-19-2 13 41 51 71 96 72-35 27-79 43-127 43-9 0-17 0-25-1 46 29 100 46 157 46 189 0 292-156 292-291 0-5 0-9 0-14 20-14 37-32 51-53z"/>
    </symbol>
  
    <symbol id="icon-youtube" viewBox="0 0 512 512">
      <path d="m506 152c0 0-5-35-21-50-19-21-41-21-51-22-71-5-178-5-178-5l0 0c0 0-107 0-178 5-10 1-32 1-51 22-16 15-21 50-21 50 0 0-5 41-5 83l0 38c0 41 5 83 5 83 0 0 5 35 21 50 19 20 45 20 56 22 41 4 173 5 173 5 0 0 107 0 178-5 10-1 32-1 51-22 15-15 20-50 20-50 0 0 6-41 6-83l0-38c0-42-5-83-5-83z m-303 168l0-143 138 72z"/>
    </symbol>
  
    <symbol id="icon-linkedin" viewBox="0 0 512 512">
      <path d="m136 179l0 283-94 0 0-283z m6-88c0 14-4 26-14 35-10 9-23 14-39 14l0 0c-16 0-29-5-38-14-10-9-14-21-14-35 0-14 4-26 14-35 10-9 23-14 39-14 16 0 28 5 38 14 9 9 14 21 14 35z m333 208l0 163-94 0 0-152c0-20-3-35-11-47-8-11-20-17-36-17-12 0-22 4-30 10-9 7-15 15-19 25-2 5-3 13-3 23l0 158-94 0c1-76 1-138 1-185 0-47 0-76 0-85l-1-13 94 0 0 41 0 0c4-6 7-12 11-16 4-5 10-10 17-15 6-5 15-10 24-13 10-3 21-4 33-4 33 0 59 11 79 32 20 22 29 54 29 95z"/>
    </symbol>
  
</svg>
