<?xml version="1.0" encoding="utf-8"?>
<!-- Generator: Adobe Illustrator 19.0.0, SVG Export Plug-In . SVG Version: 6.00 Build 0)  -->
<svg version="1.1" id="Layer_1" xmlns="http://www.w3.org/2000/svg" xmlns:xlink="http://www.w3.org/1999/xlink" x="0px" y="0px"
	 viewBox="0 0 393.39 402.98" style="enable-background:new 0 0 393.39 402.98;" xml:space="preserve">
<style type="text/css">
	.st0{fill-rule:evenodd;clip-rule:evenodd;fill:none;stroke:#FFFFFF;stroke-width:2;stroke-miterlimit:10;}
</style>
<path class="st0" d="M391.67,339.2l-27.7-47.98c17.27-47.65,15.66-105.66-11.36-152.66c13.21,45.44,11.29,94.53-0.16,132.72
	L237.89,72.85c21.31,6.39,50.37,19.33,77.36,52.75c4.38,5.43,16.97,15.77,22.92,9.25c5.81-6.36,0.73-17.83-8.98-28.56
	c-9.72-10.73-23.37-22.54-37.52-31.36c-27.33-17.05-62.1-25.44-92.58-26.25l-10.31,17.85l22.74-39.39L196.55,1.98L168,51.42
	c-46.05,9.51-92.24,37.64-118.7,80.45c30.71-30.26,71.17-51.03,107.1-60.36L46.65,261.62c0,0,0,0,0,0
	c-4.23-20.85-5.55-48.83,6.33-83.26c2.28-6.6,4.4-22.79-4.26-24.43c-8.45-1.6-15.47,8.79-19.42,22.73
	c-3.94,13.94-6.74,31.82-6.74,48.56c0,30.75,9.98,63.19,24.06,88.81h20.71c-4.87-8.07-9.81-17.72-13.17-26.22h188.88l-14.31-25.54
	l-152.98,0.01L188.76,66.53c9.26-0.14,19.93,0.42,29.26,1.75l-97.14,168.27l29.27,0.37l76.48-132.49l113.39,196.39
	c-4.71,8.2-10.92,17.41-16.7,24.08l-0.51-0.83l-96.82-167.69l-14.95,25.17l76.5,132.48l-271.51,0L1.71,339.56h62.78
	c32.4,36.46,81.99,62.42,134.07,62.42C155,391.3,114.89,366.65,87.9,339.56h220.01l1.13-0.04c-15.88,14.48-39.68,30.37-76.47,37.47
	c-6.83,1.32-21.85,7.59-18.93,15.94c2.84,8.15,15.31,9.05,29.3,5.52c14-3.53,30.81-10.05,45.24-18.43
	c25.55-14.8,47.36-37.68,62.15-61.34l-10.31-17.86l22.37,38.74L391.67,339.2z M222.21,68.96c1.62,0.31,4.5,0.87,5.97,1.23
	c1.39,0.35,4.94,1.31,6.43,1.71c-1.49-0.4-5.04-1.36-6.43-1.71C226.71,69.82,223.83,69.27,222.21,68.96z M218.39,68.33
	c1.31,0.19,2.57,0.4,3.82,0.63C220.96,68.74,219.7,68.52,218.39,68.33z M237.22,72.65c-0.89-0.26-1.75-0.5-2.61-0.74
	C235.47,72.14,236.32,72.38,237.22,72.65z"/>
</svg>
